# xmcd
# 
# Track frame offsets:
#     150
#     16477
#     34726
#     51767
#     65510
#     81776
#     96673
#     111188
#     137895
#     154290
#     174183
#     191612
# 
# Disc length: 2661
# 
# Revision: 0
# Processed by: cddbd v1.5.2PL0 Copyright (c) Steve Scherf et al.
# Submitted via: fre:ac v1.0.27
# 
DISCID=a30a630c
DTITLE=Deacon Blue - Believers
DYEAR=2016
DGENRE=
TTITLE0=The Believers
TTITLE1=This is a Love Song
TTITLE2=I Will and I Won't
TTITLE3=Meteors
TTITLE4=Gone
TTITLE5=What I Left Out
TTITLE6=A Boy
TTITLE7=Birds
TTITLE8=You Can't Know Everything
TTITLE9=Delivery Man
TTITLE10=Come Awake
TTITLE11=B Boy
EXTD=
EXTT0=
EXTT1=
EXTT2=
EXTT3=
EXTT4=
EXTT5=
EXTT6=
EXTT7=
EXTT8=
EXTT9=
EXTT10=
EXTT11=
PLAYORDER=
